<?xml version="1.0" standalone="no"?>
<!DOCTYPE svg PUBLIC "-//W3C//DTD SVG 20010904//EN"
 "http://www.w3.org/TR/2001/REC-SVG-20010904/DTD/svg10.dtd">
<svg version="1.0" xmlns="http://www.w3.org/2000/svg"
 width="1476.000000pt" height="1476.000000pt" viewBox="0 0 1476.000000 1476.000000"
 preserveAspectRatio="xMidYMid meet">
<metadata>
Created by potrace 1.11, written by Peter Selinger 2001-2013
</metadata>
<g transform="translate(0.000000,1476.000000) scale(0.100000,-0.100000)"
fill="#000000" stroke="none">
<path d="M0 7380 l0 -7380 38 0 37 1 -33 14 c-39 17 -39 21 -7 154 113 467
319 1004 541 1413 835 1539 2195 2515 3864 2773 233 36 440 55 746 68 l276 12
-109 90 c-520 430 -980 1084 -1256 1785 -482 1225 -509 2613 -77 3863 465
1343 1449 2352 2606 2671 271 75 521 108 814 108 216 0 349 -12 550 -48 1168
-211 2200 -1120 2752 -2424 502 -1187 560 -2610 156 -3850 -293 -903 -815
-1676 -1477 -2191 l-33 -26 208 -7 c910 -30 1622 -194 2309 -531 679 -333
1261 -815 1747 -1447 475 -616 865 -1419 1072 -2203 l34 -130 1 7333 1 7332
-7380 0 -7380 0 0 -7380z"/>
</g>
</svg>
